{
    "asset" : {
        "generator" : "Khronos glTF Blender I/O v3.2.40",
        "version" : "2.0"
    },
    "scene" : 0,
    "scenes" : [
        {
            "name" : "Scene",
            "nodes" : [
                4
            ]
        }
    ],
    "nodes" : [
        {
            "mesh" : 0,
            "name" : "Mesh_Bottle_Material.001_0"
        },
        {
            "children" : [
                0
            ],
            "name" : "Mesh_Bottle",
            "rotation" : [
                -0.7071068286895752,
                0,
                0,
                0.7071067094802856
            ],
            "scale" : [
                100,
                99.99999237060547,
                99.99999237060547
            ]
        },
        {
            "mesh" : 1,
            "name" : "Mesh_Bottle.001_Material.001_0"
        },
        {
            "children" : [
                2
            ],
            "name" : "Mesh_Bottle.001",
            "rotation" : [
                -0.7071068286895752,
                0,
                0,
                0.7071067094802856
            ],
            "scale" : [
                100,
                99.99999237060547,
                99.99999237060547
            ]
        },
        {
            "children" : [
                1,
                3
            ],
            "name" : "Wine Bottle",
            "scale" : [
                0.009999999776482582,
                0.010000001639127731,
                0.010000001639127731
            ]
        }
    ],
    "materials" : [
        {
            "doubleSided" : true,
            "name" : "Material.001",
            "pbrMetallicRoughness" : {
                "baseColorTexture" : {
                    "index" : 0
                },
                "metallicFactor" : 0,
                "metallicRoughnessTexture" : {
                    "index" : 1
                },
                "roughnessFactor" : 0.5854066610336304
            }
        }
    ],
    "meshes" : [
        {
            "name" : "Mesh_Bottle_Material.001_0",
            "primitives" : [
                {
                    "attributes" : {
                        "POSITION" : 0,
                        "NORMAL" : 1,
                        "TEXCOORD_0" : 2,
                        "TEXCOORD_1" : 3,
                        "TEXCOORD_2" : 4
                    },
                    "indices" : 5,
                    "material" : 0
                }
            ]
        },
        {
            "name" : "Mesh_Bottle.001_Material.001_0",
            "primitives" : [
                {
                    "attributes" : {
                        "POSITION" : 6,
                        "NORMAL" : 7,
                        "TEXCOORD_0" : 8,
                        "TEXCOORD_1" : 9,
                        "TEXCOORD_2" : 10
                    },
                    "indices" : 11,
                    "material" : 0
                }
            ]
        }
    ],
    "textures" : [
        {
            "sampler" : 0,
            "source" : 0
        },
        {
            "sampler" : 0,
            "source" : 1
        }
    ],
    "images" : [
        {
            "bufferView" : 6,
            "mimeType" : "image/png",
            "name" : "Material.001_baseColor"
        },
        {
            "bufferView" : 7,
            "mimeType" : "image/png",
            "name" : "Material.001_metallicRoughness"
        }
    ],
    "accessors" : [
        {
            "bufferView" : 0,
            "componentType" : 5126,
            "count" : 1034,
            "max" : [
                0.040699996054172516,
                0.0408610999584198,
                0.30002281069755554
            ],
            "min" : [
                -0.040699999779462814,
                -0.04053889960050583,
                0.00014999914856161922
            ],
            "type" : "VEC3"
        },
        {
            "bufferView" : 1,
            "componentType" : 5126,
            "count" : 1034,
            "type" : "VEC3"
        },
        {
            "bufferView" : 2,
            "componentType" : 5126,
            "count" : 1034,
            "type" : "VEC2"
        },
        {
            "bufferView" : 3,
            "componentType" : 5126,
            "count" : 1034,
            "type" : "VEC2"
        },
        {
            "bufferView" : 4,
            "componentType" : 5126,
            "count" : 1034,
            "type" : "VEC2"
        },
        {
            "bufferView" : 5,
            "componentType" : 5123,
            "count" : 4944,
            "type" : "SCALAR"
        },
        {
            "bufferView" : 8,
            "componentType" : 5126,
            "count" : 3679,
            "max" : [
                0.039749447256326675,
                0.03988931328058243,
                0.30002281069755554
            ],
            "min" : [
                -0.03974943980574608,
                -0.039594341069459915,
                -0.0006318493979051709
            ],
            "type" : "VEC3"
        },
        {
            "bufferView" : 9,
            "componentType" : 5126,
            "count" : 3679,
            "type" : "VEC3"
        },
        {
            "bufferView" : 10,
            "componentType" : 5126,
            "count" : 3679,
            "type" : "VEC2"
        },
        {
            "bufferView" : 11,
            "componentType" : 5126,
            "count" : 3679,
            "type" : "VEC2"
        },
        {
            "bufferView" : 12,
            "componentType" : 5126,
            "count" : 3679,
            "type" : "VEC2"
        },
        {
            "bufferView" : 13,
            "componentType" : 5123,
            "count" : 13734,
            "type" : "SCALAR"
        }
    ],
    "bufferViews" : [
        {
            "buffer" : 0,
            "byteLength" : 12408,
            "byteOffset" : 0
        },
        {
            "buffer" : 0,
            "byteLength" : 12408,
            "byteOffset" : 12408
        },
        {
            "buffer" : 0,
            "byteLength" : 8272,
            "byteOffset" : 24816
        },
        {
            "buffer" : 0,
            "byteLength" : 8272,
            "byteOffset" : 33088
        },
        {
            "buffer" : 0,
            "byteLength" : 8272,
            "byteOffset" : 41360
        },
        {
            "buffer" : 0,
            "byteLength" : 9888,
            "byteOffset" : 49632
        },
        {
            "buffer" : 0,
            "byteLength" : 48357,
            "byteOffset" : 59520
        },
        {
            "buffer" : 0,
            "byteLength" : 159523,
            "byteOffset" : 107880
        },
        {
            "buffer" : 0,
            "byteLength" : 44148,
            "byteOffset" : 267404
        },
        {
            "buffer" : 0,
            "byteLength" : 44148,
            "byteOffset" : 311552
        },
        {
            "buffer" : 0,
            "byteLength" : 29432,
            "byteOffset" : 355700
        },
        {
            "buffer" : 0,
            "byteLength" : 29432,
            "byteOffset" : 385132
        },
        {
            "buffer" : 0,
            "byteLength" : 29432,
            "byteOffset" : 414564
        },
        {
            "buffer" : 0,
            "byteLength" : 27468,
            "byteOffset" : 443996
        }
    ],
    "samplers" : [
        {
            "magFilter" : 9729,
            "minFilter" : 9987
        }
    ],
    "buffers" : [
        {
            "byteLength" : 471464,
            "uri" : "data:application/octet-stream;base64,"
        }
    ]
}
